PathFileType	4	(X/Y/Z)	C:\Users\Basilio\Documents\Thesis Gigler\squatting_fais\c3dfiles\076\SLS_front_pre5\markers_experimental.trc
DataRate	CameraRate	NumFrames	NumMarkers	Units	OrigDataRate	OrigDataStartFrame	OrigNumFrames
200.000000	200.000000	4	61	mm	200.000000	668	1782
Frame#	Time	FHD			LBHD			RBHD			C7			T10			CLAV			LSHO			LUUPA			LMUPA			LDUPA			LLEP			LMEP			LRAD			LUL			LRFIN			RSHO			RUPA1			RMUPA			RDUPA			RLEP			RMEP			RRAD			RUL			RUFIN			LASI			RASI			USACR			LSACR			RSACR			LTHI1			LTHI2			LTHI3			LTHI4			LLFC			LMFC			LTIB1			LTIB2			LTIB3			LTIB4			LLMAL			LMMAL			LHEE			LMT1			LMT2			LMT5			RTHI			RTHI2			RTHI3			RTHI4			RLFC			RMFC			RTIB1			RTIB2			RTIB3			RTIB4			RLMAL			RMMAL			RHEE			RMT1			RMT2			RMT5			
		X1	Y1	Z1	X2	Y2	Z2	X3	Y3	Z3	X4	Y4	Z4	X5	Y5	Z5	X6	Y6	Z6	X7	Y7	Z7	X8	Y8	Z8	X9	Y9	Z9	X10	Y10	Z10	X11	Y11	Z11	X12	Y12	Z12	X13	Y13	Z13	X14	Y14	Z14	X15	Y15	Z15	X16	Y16	Z16	X17	Y17	Z17	X18	Y18	Z18	X19	Y19	Z19	X20	Y20	Z20	X21	Y21	Z21	X22	Y22	Z22	X23	Y23	Z23	X24	Y24	Z24	X25	Y25	Z25	X26	Y26	Z26	X27	Y27	Z27	X28	Y28	Z28	X29	Y29	Z29	X30	Y30	Z30	X31	Y31	Z31	X32	Y32	Z32	X33	Y33	Z33	X34	Y34	Z34	X35	Y35	Z35	X36	Y36	Z36	X37	Y37	Z37	X38	Y38	Z38	X39	Y39	Z39	X40	Y40	Z40	X41	Y41	Z41	X42	Y42	Z42	X43	Y43	Z43	X44	Y44	Z44	X45	Y45	Z45	X46	Y46	Z46	X47	Y47	Z47	X48	Y48	Z48	X49	Y49	Z49	X50	Y50	Z50	X51	Y51	Z51	X52	Y52	Z52	X53	Y53	Z53	X54	Y54	Z54	X55	Y55	Z55	X56	Y56	Z56	X57	Y57	Z57	X58	Y58	Z58	X59	Y59	Z59	X60	Y60	Z60	X61	Y61	Z61	

669	3.34	-265.3773803710938	1641.338134765625	-1046.37255859375	-402.4054565429689	1565.3125	-1142.2421875	-387.0123596191407	1568.32470703125	-991.1491699218752	-441.6926574707032	1442.073852539063	-1060.960083007813	-472.7290039062501	1128.327880859375	-1060.039428710938	-309.6736145019532	1372.108764648438	-1068.973388671875	-371.5896911621094	1392.403930664063	-1227.344116210938	-228.1219329833985	1335.25390625	-1311.075439453125	-192.0874938964844	1353.884887695313	-1281.11962890625	-163.2992248535157	1326.829833984375	-1327.724853515625	-114.2464294433594	1305.771606445313	-1340.920043945313	-106.0972061157227	1245.909423828125	-1287.697387695313	135.7720489501953	1327.34130859375	-1298.453125	130.3269500732422	1325.43359375	-1363.798828125	218.3230133056641	1342.940307617188	-1306.011474609375	-350.4065856933594	1392.69091796875	-910.6643676757815	-211.834213256836	1323.363159179688	-826.4743652343752	-179.6119537353516	1356.359619140625	-844.3104248046877	-142.4064636230469	1313.0029296875	-822.044128417969	-76.48077392578126	1314.790893554688	-824.8316650390627	-74.81509399414064	1267.265625	-885.1021728515627	167.5284271240235	1316.35205078125	-877.9852294921877	159.6618041992188	1312.696899414063	-812.2893676757815	242.0062103271485	1333.877807617188	-867.4859008789065	-305.7445373535157	947.6896972656252	-1155.542724609375	-306.9386901855469	967.5735473632815	-940.334167480469	-476.1401672363282	1014.837036132813	-1048.8974609375	-479.5579223632814	983.540710449219	-1074.436889648438	-484.5068969726564	987.4114379882815	-1017.175354003906	-379.7390747070313	783.1082763671877	-1208.487426757813	-342.6173400878907	706.5079345703126	-1204.532958984375	-293.3591308593751	714.2094116210939	-1200.60400390625	-365.1027832031251	653.7009277343751	-1182.904052734375	-341.7620544433594	497.1682434082032	-1147.062866210938	-294.9154968261719	504.536102294922	-1037.802490234375	-302.7031555175782	358.1671447753907	-1065.744750976563	-335.4774475097657	299.0824279785157	-1122.76611328125	-302.6426086425782	304.5002136230469	-1089.925659179688	-317.1532287597657	233.2883758544922	-1046.141479492188	-384.3037414550782	105.5473022460938	-1076.25048828125	-351.6396484375001	127.0322647094727	-1001.051879882813	-440.5347290039064	97.29302978515628	-1026.170043945313	-239.7508544921876	54.40084457397462	-1008.155639648438	-233.7929077148438	48.49248123168947	-1046.28173828125	-256.8740539550782	40.88646316528321	-1095.8212890625	-253.1767883300782	751.7195434570314	-861.5542602539065	-189.1463623046875	735.6262207031251	-873.5446777343752	-168.5768280029297	757.8843383789064	-889.0225830078127	-159.5969848632813	658.0020141601564	-883.4292602539065	-124.2175216674805	608.6368408203126	-888.6096801757815	-115.7766571044922	607.0845336914064	-1005.601196289063	-11.31296825408936	523.8668823242189	-909.9284667968752	-13.87893867492676	420.4512634277345	-875.3416137695315	22.44750022888184	445.3710327148439	-891.4729614257815	58.28421020507814	415.3181457519532	-925.3118286132815	102.8663864135742	267.7515258789063	-885.0525512695315	103.5934677124024	288.9527587890626	-967.8930664062502	78.9852752685547	206.1205596923829	-920.8056640625002	237.7194519042969	333.1078491210938	-967.8386230468752	236.9117584228516	348.1341857910157	-922.0372314453127	233.4000701904297	320.0562744140626	-866.2531738281252	
670	3.345	-265.0990600585938	1641.126586914063	-1046.359741210938	-402.0950927734376	1565.074096679688	-1142.30810546875	-386.6335754394532	1568.150024414063	-991.1613769531252	-441.4304199218751	1441.91748046875	-1060.921630859375	-472.9970703125001	1128.205444335938	-1059.931274414063	-309.5987243652344	1371.885131835938	-1068.958862304688	-371.3479003906251	1392.173706054688	-1227.357055664063	-227.7154998779297	1334.914428710938	-1311.029052734375	-191.9939575195313	1353.620483398438	-1281.093017578125	-163.0187225341797	1326.614501953125	-1327.596069335938	-114.0596466064453	1305.51708984375	-1340.851806640625	-105.879379272461	1245.689208984375	-1287.691040039063	135.9353942871094	1327.081176757813	-1298.401977539063	130.5184020996094	1325.227416992188	-1363.79345703125	218.5407714843751	1342.545166015625	-1305.881103515625	-350.2015686035157	1392.455078125	-910.5796508789065	-211.7207946777344	1323.16552734375	-826.4545898437502	-179.503158569336	1356.07177734375	-844.283142089844	-142.3292694091797	1312.798950195313	-821.972351074219	-76.3704071044922	1314.533813476563	-824.7836914062502	-74.69295501708986	1267.051635742188	-885.0381469726565	167.6300811767578	1315.994018554688	-877.8587646484377	159.7355194091797	1312.306640625	-812.149841308594	242.1063079833985	1333.630859375	-867.3322753906252	-306.2637939453126	947.487243652344	-1155.513916015625	-307.5138244628907	967.3532714843752	-940.2838134765627	-476.7140197753907	1014.725158691406	-1048.8125	-480.3665466308595	983.3201904296877	-1074.161010742188	-485.2178039550782	987.3151855468752	-1017.085021972656	-379.2866516113282	782.7757568359377	-1208.426025390625	-342.5842590332032	706.3351440429689	-1204.582641601563	-293.4130249023438	714.0886230468751	-1200.661376953125	-364.9852905273438	653.4043579101564	-1182.945922851563	-341.0250854492188	497.0554809570314	-1147.171997070313	-294.4882812500001	504.5599975585939	-1037.892578125	-302.2231445312501	358.0238952636719	-1065.804443359375	-334.9111022949219	299.1866149902344	-1122.945922851563	-302.3379211425782	304.4206237792969	-1089.8984375	-316.8800964355469	233.2264709472657	-1046.132568359375	-384.1793823242189	105.5341949462891	-1076.26806640625	-351.5942993164063	127.0213699340821	-1001.059692382813	-440.5067749023439	97.32827758789065	-1026.14697265625	-239.7246704101563	54.43234252929689	-1008.131469726563	-233.7899780273438	48.49351501464845	-1046.286254882813	-256.8314819335938	40.87130355834962	-1095.799194335938	-253.4694976806641	751.6616821289064	-861.5335083007815	-189.4924621582032	735.5886840820314	-873.5586547851565	-168.9109191894532	757.9539794921876	-889.0134887695315	-159.8051452636719	658.1921386718751	-883.5388183593752	-124.3126296997071	608.8164672851564	-888.8347778320315	-115.8378601074219	607.4562377929689	-1005.773986816406	-11.25274753570557	524.3595581054689	-910.0891113281252	-13.5039930343628	420.9172668457032	-875.5269775390627	22.77292060852051	445.9344177246095	-891.6987915039065	58.77982330322267	416.039276123047	-925.6123657226565	103.4551010131836	268.5218505859376	-885.1702880859377	103.8469543457032	289.6019897460938	-968.3433227539065	79.86714172363283	206.7146453857422	-921.2677001953127	238.2142181396485	334.0607604980469	-967.9147949218752	237.8072967529297	348.9713439941407	-922.0181884765627	234.3977813720704	321.6839599609376	-866.2449340820315	
671	3.35	-264.8259582519532	1640.793212890625	-1046.33837890625	-401.8692932128907	1564.761840820313	-1142.214477539063	-386.4025268554689	1567.903076171875	-991.2000732421877	-441.2241210937501	1441.716918945313	-1060.857543945313	-473.3236389160157	1128.068603515625	-1059.776489257813	-309.5575256347657	1371.637573242188	-1068.9248046875	-371.0511474609376	1391.941040039063	-1227.2392578125	-227.5825347900391	1334.795288085938	-1310.941284179688	-191.8298492431641	1353.376342773438	-1281.000122070313	-162.7930908203125	1326.377807617188	-1327.494140625	-113.8506240844727	1305.229858398438	-1340.691284179688	-105.7107391357422	1245.410522460938	-1287.618408203125	136.1463928222657	1326.806640625	-1298.351806640625	130.5737762451172	1325.053344726563	-1363.843017578125	218.3584899902344	1342.409057617188	-1305.981567382813	-350.0890197753907	1392.215942382813	-910.533874511719	-211.6752624511719	1322.971435546875	-826.4207153320315	-179.4051666259766	1355.9111328125	-844.2161865234377	-142.1767272949219	1312.57421875	-821.8988037109377	-76.26062011718751	1314.263916015625	-824.7270507812502	-74.6210403442383	1266.726684570313	-884.830993652344	167.7745666503907	1315.602783203125	-877.8017578125002	159.9304351806641	1311.949829101563	-812.115905761719	242.2524871826172	1333.289916992188	-867.1895751953127	-306.7639465332032	947.145935058594	-1155.352172851563	-308.1170349121094	967.0855102539065	-940.3528442382815	-477.1680297851564	1014.578002929688	-1048.814331054688	-483.103973388672	983.4825439453127	-1073.7900390625	-485.5516662597657	986.7252197265627	-1017.000915527344	-379.6558532714844	782.5393066406252	-1208.5576171875	-342.5958862304688	706.1912231445314	-1204.69677734375	-293.3420715332032	713.9390869140626	-1200.746826171875	-364.2514343261719	653.0372924804689	-1182.90576171875	-340.4524536132813	496.9160461425782	-1147.363037109375	-294.0655212402344	504.580535888672	-1038.00244140625	-301.8161010742188	357.8884277343751	-1065.96142578125	-334.3578796386719	299.0560913085938	-1123.108520507813	-301.9638977050782	304.2739868164063	-1089.881591796875	-316.6200256347657	233.090805053711	-1046.149780273438	-384.2398376464845	105.5221176147461	-1076.266723632813	-351.5463562011719	127.0578689575196	-1001.113891601563	-440.4791564941407	97.34993743896487	-1026.147338867188	-239.7225799560547	54.42235946655275	-1008.137817382813	-233.770248413086	48.49822998046876	-1046.253173828125	-256.8443298339844	40.82910537719727	-1095.81201171875	-253.8130493164063	751.5914916992189	-861.5195922851565	-189.7281341552735	735.6673583984376	-873.5725097656252	-169.3464508056641	757.9203491210939	-889.041931152344	-159.9850463867188	658.2021484375001	-883.6257324218752	-124.3822937011719	609.0621948242189	-888.7827148437502	-115.9676666259766	607.7398681640626	-1005.920654296875	-11.09773254394531	524.9567260742189	-910.290710449219	-13.15548133850098	421.3515625000001	-875.7629394531252	23.08342742919922	446.4140625000001	-891.826843261719	59.24044036865236	416.681121826172	-925.6716308593752	104.1440734863282	269.1766052246094	-885.3762817382815	104.0880432128907	290.6280822753907	-968.4057617187502	80.76486968994142	207.4072570800782	-921.604919433594	238.9843750000001	335.4128417968751	-968.1939086914065	238.2495574951172	349.8269958496094	-922.3818359375002	234.7537536621094	322.2302551269532	-866.5036621093752	
672	3.355	-264.4339599609376	1640.404174804688	-1046.316650390625	-401.632781982422	1564.6357421875	-1142.187622070313	-386.0858459472657	1567.660522460938	-991.178405761719	-441.0240173339845	1441.57763671875	-1060.772338867188	-473.6196289062501	1127.927490234375	-1059.64501953125	-309.4013366699219	1371.260131835938	-1068.88427734375	-370.8067016601563	1391.646118164063	-1227.115356445313	-227.1738739013672	1334.545654296875	-1310.941162109375	-191.6202087402344	1353.101806640625	-1280.955078125	-162.3844451904297	1326.026611328125	-1327.3125	-113.7255859375	1305.18212890625	-1340.680541992188	-105.5521392822266	1245.097778320313	-1287.564697265625	136.3685455322266	1326.502197265625	-1298.236572265625	130.6550903320313	1324.804565429688	-1363.836669921875	218.5408782958985	1342.143432617188	-1305.924560546875	-349.9104919433594	1392.015258789063	-910.5061645507815	-211.5883941650391	1322.74072265625	-826.4414672851565	-179.2951812744141	1355.681640625	-844.2046508789065	-142.0747985839844	1312.281005859375	-821.849060058594	-76.14892578125001	1313.981323242188	-824.6616210937502	-74.53247833251955	1266.451416015625	-884.7476806640627	167.9189147949219	1315.190307617188	-877.728454589844	160.0500793457032	1311.594116210938	-812.0325317382815	242.3580932617188	1332.832153320313	-867.1126708984377	-307.4872741699219	946.9877929687502	-1155.322265625	-308.8013305664063	966.8327636718752	-940.2778320312502	-477.7078247070314	1014.428527832031	-1048.743286132813	-483.7232666015626	983.319030761719	-1073.686157226563	-486.2387084960939	986.5126953125002	-1016.86669921875	-379.7942199707032	782.2208251953127	-1208.513793945313	-342.5737915039063	705.9722290039064	-1204.709350585938	-293.4969787597657	713.9074096679689	-1200.756103515625	-364.1504211425782	652.7799072265626	-1182.954467773438	-339.8230285644532	496.8323669433595	-1147.554321289063	-293.5878295898438	504.5887451171876	-1038.151977539063	-301.2818298339844	357.8305053710938	-1066.02587890625	-333.9301757812501	299.4539794921876	-1123.123657226563	-301.4694519042969	304.1272583007813	-1089.872314453125	-316.2656250000001	232.9702453613282	-1046.107788085938	-384.1728820800782	105.5237121582032	-1076.2705078125	-351.5199584960938	127.075553894043	-1001.137817382813	-440.5094604492189	97.34603118896487	-1026.151489257813	-239.7111358642579	54.43967056274415	-1008.115844726563	-233.7566680908204	48.4735679626465	-1046.270263671875	-256.8837890625001	40.85815048217774	-1095.796752929688	-254.1915740966797	751.5142211914064	-861.5156860351565	-190.0507507324219	735.6879272460939	-873.613464355469	-169.7207946777344	757.9805297851564	-889.0816040039065	-160.16064453125	658.3701171875001	-883.7010498046877	-124.4739074707032	609.2288208007814	-888.986999511719	-116.0210571289063	608.0276489257814	-1006.017883300781	-10.82915019989014	525.5211181640626	-910.4546508789065	-12.83316040039063	421.7532348632814	-876.0037231445315	23.40355682373047	446.8949279785157	-891.956237792969	59.55928039550783	417.2557678222657	-925.8343505859377	104.9216995239258	269.7261657714844	-885.681579589844	104.9728546142578	291.3967285156251	-968.9938964843752	81.65586090087892	208.2305908203126	-922.1470947265627	239.4138183593751	336.5387878417969	-968.434509277344	238.9170684814454	351.2257995605469	-922.3005371093752	235.4534454345704	323.3353881835938	-866.6530761718752	
